<svg xmlns="http://www.w3.org/2000/svg" width="79" height="102" fill="none"><path stroke="#C5C5C8" stroke-miterlimit="10" stroke-width="1.39" d="M40.332 96.58h-2.085c-17.93 0-32.453-14.524-32.453-32.453v-25.99c0-17.93 14.524-32.454 32.453-32.454h2.085c17.929 0 32.453 14.524 32.453 32.453v25.99c0 17.93-14.524 32.454-32.453 32.454Z"/><path stroke="#C5C5C8" stroke-miterlimit="10" stroke-width="1.39" d="M39.498 101.131h-.417c-20.952 0-37.943-16.99-37.943-37.942V39.075C1.138 18.122 18.13 1.13 39.081 1.13h.417c20.952 0 37.943 16.991 37.943 37.944v24.113c0 20.953-16.99 37.943-37.943 37.943Z"/><path stroke="#C5C5C8" stroke-linecap="round" stroke-linejoin="round" stroke-width="1.39" d="M59.026 66.177h-26.06L27.094 45.12h26.094zM32.966 66.177h-6.533m0 0 .66-21.057-7.018 21.057zM13.925 66.177V41.785M10.277 48.074l3.648-2.954 3.892 2.954M10.277 43.939l3.648-2.953 3.892 2.953M10.277 52.904l3.648-2.954 3.892 2.954M10.277 57.073l3.648-2.988 3.892 2.988M63.439 66.177V41.785M59.79 48.074l3.648-2.954 3.892 2.954M59.79 43.939l3.648-2.953 3.892 2.953M59.79 52.904l3.648-2.954 3.892 2.954M59.79 57.073l3.648-2.988 3.892 2.988"/><path stroke="#C5C5C8" stroke-linecap="round" stroke-linejoin="round" stroke-width="1.39" d="M17.816 48.074 28.24 35.079l4.135 3.856 7.054-7.227 7.157 6.984 3.927-3.718 9.277 13.1"/><path fill="#C5C5C8" d="M18.964 72.744h-1.356l-.903 5.837h.834l.139-1.077h1.146l.14 1.077h.938zm-.73 1.042.451 2.954h-.868zm3.718 4.795h1.459c.938 0 1.39-.521 1.39-1.425v-2.953c0-.938-.452-1.46-1.39-1.46h-1.46zm1.459-5.003c.278 0 .452.138.452.555v3.058c0 .417-.174.556-.452.556h-.521v-4.17zm4.308-.834h-.938l.904 5.837h1.39l.903-5.837h-.869l-.695 4.76zm5.282.834h1.564v-.834h-2.502v5.837h2.502v-.834H33v-1.702h1.25v-.834h-1.25zm5.768 5.003h.938v-5.837h-.8v3.509l-.972-3.51h-1.147v5.838h.834v-4.239zm3.023-5.003h.938v5.003h.938v-5.003h.938v-.834h-2.814zm4.864-.834v4.447c0 .938.452 1.46 1.355 1.46.904 0 1.355-.522 1.355-1.46v-4.447h-.868v4.517c0 .417-.174.556-.452.556-.313 0-.486-.14-.486-.556v-4.517zm7.888 5.837c-.104-.208-.104-.417-.104-.695v-.903c0-.626-.14-1.043-.591-1.251.382-.174.59-.59.59-1.181v-.452c0-.904-.416-1.355-1.355-1.355h-1.39v5.837h.904v-2.363h.313c.417 0 .625.209.625.73v.938c0 .452.035.556.07.695zm-1.494-5.003c.312 0 .451.173.451.59v.59c0 .453-.208.626-.52.626h-.383v-1.806zm4.586 0h1.598v-.834h-2.501v5.837h2.502v-.834h-1.599v-1.702h1.251v-.834h-1.25zM20.735 28.338c1.147 0 2.05-.417 2.606-1.181l-1.216-1.112c-.347.451-.764.695-1.285.695-.834 0-1.355-.556-1.355-1.46s.52-1.46 1.355-1.46c.52 0 .938.244 1.285.696l1.216-1.112c-.556-.764-1.459-1.181-2.606-1.181-1.876 0-3.266 1.25-3.266 3.057s1.39 3.058 3.266 3.058m7.47-.14h2.05l-2.57-5.837h-1.911L23.202 28.2h2.016l.382-1.008h2.224zm-2.084-2.431.59-1.494.557 1.494zm11.432 2.432-.035-5.838h-1.599l-1.876 3.093-1.876-3.093h-1.633V28.2h1.807v-2.571l1.25 2.05h.87l1.285-2.155V28.2zm3.752-5.838h-2.78V28.2h1.946v-1.46h.834c1.633 0 2.676-.833 2.676-2.189 0-1.355-1.043-2.189-2.676-2.189m-.104 2.884h-.73v-1.39h.73c.521 0 .8.279.8.695 0 .418-.279.695-.8.695m3.405 2.954h1.98V22.36h-1.98zm6.776-5.838v2.641l-2.224-2.64h-1.633v5.837h1.946v-2.676L51.66 28.2h1.633V22.36zm6.74 4.24a1.8 1.8 0 0 1-.73.139c-.833 0-1.39-.591-1.39-1.46 0-.903.557-1.46 1.425-1.46.522 0 .939.21 1.286.626L60 23.334c-.59-.73-1.53-1.111-2.676-1.111-1.946 0-3.3 1.25-3.3 3.057 0 1.772 1.354 3.058 3.266 3.058.834 0 1.841-.278 2.536-.765v-2.466h-1.703z"/></svg>