<svg xmlns="http://www.w3.org/2000/svg" width="101" height="98" fill="none"><path stroke="#C5C5C8" stroke-miterlimit="10" stroke-width="1.376" d="M51.582 91.93 8.885 49.267 51.582 6.604l42.663 42.663z"/><path stroke="#C5C5C8" stroke-miterlimit="10" stroke-width="1.376" d="M51.582 97.026 3.688 49.132 51.582 1.236l47.86 47.895z"/><path stroke="#C5C5C8" stroke-miterlimit="10" stroke-width="1.376" d="M68.294 41.693c0 9.17-7.439 16.61-16.61 16.61s-16.61-7.44-16.61-16.61c0-9.172 7.439-16.61 16.61-16.61s16.61 7.438 16.61 16.61ZM56.1 72.331h-8.798v-4.993h8.797zM37.281 49.913l10.02 17.425M56.099 67.338l10.02-17.425"/><path stroke="#C5C5C8" stroke-miterlimit="10" stroke-width="1.376" d="M51.683 25.083s-20.618 15.081 0 33.22M52.023 25.083s20.653 15.081 0 33.22"/><path fill="#C5C5C8" d="M4.877 17.032h2.377v-.815h-1.46v-4.891h-.917zm5.299-4.891h1.562v-.815H9.292v5.706h2.446v-.815h-1.562v-1.664h1.222v-.816h-1.222zm3.464 0h.951v4.891h.884v-4.891h.95v-.815H13.64zm5.163.034-.237.815h.34l.407-.917v-.747h-.85v.849zm2.65.51c0 1.63 1.732 1.834 1.732 3.022 0 .408-.17.544-.441.544-.306 0-.476-.136-.476-.544V15.3h-.85v.34c0 .917.442 1.46 1.326 1.46.883 0 1.358-.543 1.358-1.46 0-1.63-1.766-1.835-1.766-3.024 0-.407.17-.543.442-.543.305 0 .441.136.441.543v.238h.85v-.17c0-.917-.442-1.426-1.325-1.426-.85 0-1.291.51-1.291 1.426M74.101 12.141h.951v4.891h.918v-4.891h.917v-.815H74.1zm7.61 4.891c-.103-.204-.103-.407-.103-.679v-.883c0-.612-.136-1.053-.611-1.223.407-.204.611-.577.611-1.155v-.442c0-.883-.407-1.324-1.325-1.324h-1.358v5.706h.883v-2.31h.306c.407 0 .611.17.611.714v.883c0 .476 0 .578.068.713zm-1.462-4.891c.306 0 .442.17.442.578v.577c0 .442-.204.611-.51.611h-.373v-1.766zm5.571-.815h-1.29l-.918 5.706h.816l.17-1.053h1.086l.136 1.053h.917zm-.713 1.019.441 2.887H84.7zm4.11-1.02h-.883l.883 5.707h1.325l.883-5.706h-.815l-.714 4.653zm5.163.816h1.529v-.815h-2.446v5.706h2.446v-.815H94.38v-1.664h1.223v-.816H94.38zm3.736 4.891h2.378v-.815H99v-4.891h-.884zM2.703 79.6H1.412l-.917 5.707h.815l.136-1.053h1.12l.137 1.053h.917zm-.714 1.02.442 2.886h-.85zm6.454 4.687c-.102-.204-.102-.408-.102-.68v-.883c0-.611-.136-1.019-.611-1.223.407-.203.611-.577.611-1.154v-.442c0-.883-.408-1.325-1.359-1.325H5.658v5.707h.883v-2.31h.306c.407 0 .577.17.577.713v.884c0 .475.034.577.102.713zm-1.46-4.892c.305 0 .441.17.441.578v.577c0 .442-.204.612-.544.612h-.34v-1.767zm4.415.51c0-.408.17-.578.442-.578.306 0 .475.17.475.578v3.057c0 .408-.17.578-.475.578-.272 0-.442-.17-.442-.578zm-.917 3.057c0 .883.51 1.427 1.359 1.427.883 0 1.392-.544 1.392-1.427v-2.99c0-.916-.51-1.426-1.392-1.426-.85 0-1.359.51-1.359 1.427zm4.891-4.348v4.348c0 .917.476 1.46 1.36 1.46.882 0 1.324-.543 1.324-1.46v-4.348h-.85v4.416c0 .408-.17.544-.441.544-.306 0-.476-.136-.476-.544v-4.416zm6.828 5.74h.917v-5.74h-.781v3.43l-.917-3.43h-1.155v5.74h.815v-4.143zm3.193 0h1.426c.918 0 1.36-.509 1.36-1.426v-2.887c0-.917-.442-1.393-1.36-1.393h-1.426zm1.426-4.89c.272 0 .442.135.442.543v2.955c0 .408-.17.578-.442.578h-.51v-4.077zM78.076 85.307h1.189l.645-5.707h-.78l-.477 4.518-.441-4.518h-.85l-.44 4.484-.476-4.484h-.883l.645 5.707h1.223l.34-3.057zm4.722-4.382c0-.408.17-.577.475-.577.272 0 .442.17.442.577v3.091c0 .408-.17.543-.442.543-.306 0-.475-.135-.475-.543zm-.884 3.023c0 .917.476 1.427 1.36 1.427.882 0 1.358-.51 1.358-1.427V80.96c0-.883-.476-1.427-1.359-1.427s-1.359.544-1.359 1.427zm7.711 1.393c-.102-.204-.102-.408-.102-.713v-.884c0-.577-.136-1.019-.577-1.189.373-.203.577-.577.577-1.154v-.476c0-.883-.407-1.29-1.325-1.29H86.84v5.706h.883v-2.344h.306c.407 0 .611.204.611.747v.883c0 .476.034.544.068.714zm-1.46-4.891c.34 0 .475.17.475.577v.577c0 .442-.204.578-.543.578h-.374v-1.733zm3.6 4.89h2.378v-.814h-1.495v-4.892h-.883zm4.382 0h1.426c.918 0 1.325-.509 1.325-1.426v-2.887c0-.917-.407-1.393-1.325-1.393h-1.426zm1.426-4.925c.272 0 .442.17.442.578v2.955c0 .408-.17.578-.442.578h-.51v-4.11zM84.394 77.155v-3.363h.68v-.374h-1.767v.374h.68v3.363zm3.363-1.665v1.665h.408v-3.737h-.408v1.699h-.917v-1.699h-.408v3.737h.408V75.49zm2.344-.407v-1.291h1.12v-.374H89.66v3.737h1.563v-.374H90.1v-1.325h.917v-.373z"/><path stroke="#C5C5C8" stroke-miterlimit="10" stroke-width=".688" d="M16.12 49.166h20.55M65.95 49.166h20.584M22.913 55.585h17.901M29.74 62.005h43.75M36.67 68.969h10.462M42.987 74.54h18.071M47.574 80.11h8.22M55.828 68.969h10.428M62.587 55.585h17.9"/></svg>