<svg xmlns="http://www.w3.org/2000/svg" width="102" height="102" fill="none"><path stroke="#C5C5C8" stroke-miterlimit="10" stroke-width="1.91" d="M95.976 96.4H5.231V49.619c0-24.304 19.7-43.963 43.962-43.963h2.82c24.304 0 43.963 19.659 43.963 43.963z"/><path stroke="#C5C5C8" stroke-miterlimit="10" stroke-width="1.91" d="M96.805 100.755H4.442A3.434 3.434 0 0 1 1 97.313v-48.4C1 22.743 22.235 1.508 48.405 1.508h4.396c26.17 0 47.405 21.234 47.405 47.405v48.4c0 1.908-1.534 3.442-3.4 3.442Z"/><path stroke="#C5C5C8" stroke-miterlimit="10" stroke-width="1.91" d="M73.124 52.52c0 12.526-10.161 22.687-22.687 22.687-12.525 0-22.686-10.16-22.686-22.686zM40.318 52.52l-4.314-10.119M27.75 46.549l17.96-7.424-12.568-2.572zM56.948 52.52l5.06-15.967 8.834.954"/><path fill="#C5C5C8" d="M31.525 84.954h-1.618v6.967h1.079v-2.613h.539c1.078 0 1.617-.622 1.617-1.741v-.913c0-1.078-.539-1.7-1.617-1.7m0 .995c.332 0 .539.166.539.664v1.037c0 .497-.207.663-.54.663h-.538V85.95zm6.511-.995H36.42l-1.12 6.967h1.037l.166-1.285h1.368l.166 1.285h1.12zm-.87 1.244.539 3.525h-1.079zm7.88 5.723a2.5 2.5 0 0 1-.125-.83v-1.078c0-.746-.166-1.244-.705-1.493.498-.248.705-.705.705-1.41v-.539c0-1.078-.498-1.617-1.617-1.617h-1.66v6.967h1.12v-2.82h.374c.497 0 .705.207.705.871v1.078c0 .581.041.705.083.871zm-1.784-5.972c.415 0 .58.207.58.705v.705c0 .54-.248.747-.663.747h-.415v-2.157zm6.802-.995h-1.618l-1.12 6.967h.996l.207-1.244h1.327l.208 1.244h1.12zm-.871 1.244.539 3.525h-1.078zm4.48 5.723h1.741c1.078 0 1.617-.58 1.617-1.7v-3.525c0-1.12-.539-1.742-1.617-1.742h-1.742zm1.7-5.972c.373 0 .58.166.58.664v3.65c0 .497-.207.663-.58.663h-.581v-4.977zm4.313 5.972h1.12v-6.967h-1.12zm3.774-5.308c0 1.99 2.115 2.28 2.115 3.69 0 .499-.207.706-.58.706-.332 0-.54-.207-.54-.705v-.498H63.42v.456c0 1.12.539 1.742 1.617 1.742s1.659-.622 1.659-1.742c0-1.99-2.157-2.28-2.157-3.69 0-.499.208-.706.54-.706.373 0 .539.207.539.705v.29h1.036v-.248c0-1.12-.539-1.742-1.617-1.742-1.037 0-1.576.622-1.576 1.742m6.926-.664h1.908v-.995h-2.986v6.967h2.986v-.995h-1.908v-2.032h1.493v-.996h-1.493zM27.875 29.461a24 24 0 0 0 .25-1.825c.787.208 1.7.166 2.446 0 .664-.207.871-.373.788-.622-.207-.83-3.815.913-4.562-1.493-.373-1.244.456-2.571 2.696-3.152.995-.29 2.074-.332 2.903-.124-.124.705-.207 1.078-.332 1.783q-1.203-.249-2.115 0c-.705.207-.913.456-.83.664.208.788 3.982-.83 4.521 1.617.29 1.203-.539 2.447-2.654 2.986-1.12.332-2.323.374-3.11.166M34.096 25.272c-.331-1.451-.456-2.198-.788-3.65.996-.207 1.493-.331 2.489-.497.249 1.451.415 2.157.663 3.608.166 1.037.664 1.327 1.328 1.203.663-.083.995-.54.83-1.576-.208-1.452-.333-2.157-.54-3.608a43 43 0 0 1 2.447-.374c.207 1.493.29 2.24.456 3.733.249 2.032-.83 3.318-2.903 3.65-2.115.373-3.567-.498-3.982-2.489M48.57 26.558c-.041-1.244-.082-1.866-.124-3.07-.58.996-.87 1.494-1.41 2.53-.415.042-.622.042-1.037.084a81 81 0 0 0-1.7-2.281c.083 1.202.166 1.783.248 2.986-.829.083-1.285.124-2.115.207-.29-2.696-.456-4.064-.746-6.76l2.074-.207c1.078 1.368 1.617 2.032 2.654 3.442.788-1.493 1.244-2.24 2.157-3.733.829 0 1.244-.041 2.073-.041 0 2.737.042 4.106.042 6.802-.83 0-1.245.041-2.115.041M57.985 26.848c.083-1.244.125-1.866.25-3.11-.706.954-1.079 1.41-1.743 2.364-.414-.042-.622-.042-1.036-.083-.54-.954-.83-1.452-1.41-2.447-.042 1.203-.042 1.825-.125 3.027-.83-.041-1.244-.041-2.115-.082.041-2.696.041-4.065.083-6.802.83.041 1.244.041 2.073.041.913 1.493 1.37 2.24 2.199 3.733a67 67 0 0 1 2.612-3.401c.83.041 1.245.083 2.074.207-.332 2.696-.456 4.023-.746 6.76a19 19 0 0 0-2.116-.207M67.235 26.434c-.166.663-.208.995-.374 1.7-2.24-.456-3.36-.664-5.64-.954.332-2.696.497-4.064.87-6.76 2.406.332 3.609.539 6.014.995-.124.705-.207 1.037-.331 1.7a52 52 0 0 0-3.526-.621c-.041.331-.041.456-.124.788 1.244.207 1.825.29 3.069.539-.124.663-.207.995-.332 1.617-1.203-.207-1.783-.332-2.986-.539-.041.373-.083.54-.124.912 1.368.208 2.073.332 3.483.623"/><path fill="#C5C5C8" fill-rule="evenodd" d="M71.091 27.346c-.249-.083-.373-.083-.622-.166l-.415 1.66c-.912-.208-1.368-.333-2.28-.54.58-2.655.87-3.982 1.41-6.636a50 50 0 0 1 3.566.83c2.032.539 3.028 1.907 2.53 3.4-.249.954-.954 1.493-1.908 1.66.374.995.54 1.45.83 2.446-.954-.29-1.452-.456-2.406-.705-.29-.788-.414-1.161-.705-1.949m1.037-3.152c-.332-.124-.539-.166-.87-.249a22 22 0 0 0-.374 1.576l.83.207c.663.166 1.078-.041 1.202-.539.124-.456-.124-.83-.788-.995" clip-rule="evenodd"/><path stroke="#C5C5C8" stroke-miterlimit="10" stroke-width="1.91" d="M5.23 81.636h90.746"/><path stroke="#C5C5C8" stroke-miterlimit="10" stroke-width=".955" d="M10.912 52.52h80.419M72.502 57.788h18.83M10.912 57.788h17.46M70.843 63.055H91.33M10.912 63.055h18.954M67.525 68.364H91.33M10.912 68.364H34.18M59.52 73.631h31.81M10.912 73.631H42.06"/></svg>