<svg xmlns="http://www.w3.org/2000/svg" width="83" height="102" fill="none"><path stroke="#C5C5C8" stroke-miterlimit="10" stroke-width="1.406" d="M77.774 82.32 41.44 95.893 5.07 82.319V5.263h72.704z"/><path stroke="#C5C5C8" stroke-miterlimit="10" stroke-width="1.406" d="M81.757 85.528 41.44 101.131 1.085 85.528V1.131h80.672z"/><path fill="#C5C5C8" d="M17.869 30.899c2.471 0 3.725-1.217 3.725-2.693 0-2.95-4.39-2.14-4.39-3.098 0-.258.222-.517 1.034-.517.663 0 1.438.222 2.213.59l.811-1.918c-.848-.48-1.955-.7-3.024-.7-2.472 0-3.69 1.217-3.69 2.692 0 2.951 4.39 2.14 4.39 3.173 0 .258-.258.405-1.032.405-.886 0-1.882-.258-2.62-.7l-.885 1.954c.812.48 2.14.812 3.468.812m8.336 0c2.472 0 3.91-1.365 3.91-3.762v-4.39H27.46v4.316c0 1.217-.48 1.66-1.217 1.66-.775 0-1.217-.443-1.217-1.66v-4.316h-2.693v4.39c0 2.397 1.438 3.762 3.873 3.762m14.681-.184v-7.968h-2.213l-2.545 4.242-2.583-4.242h-2.213v7.968h2.435V27.21l1.733 2.804h1.18l1.735-2.951.037 3.652zm10.882 0-.037-7.968h-2.214L47.01 26.99l-2.619-4.242h-2.213v7.968h2.471V27.21l1.734 2.804h1.18l1.734-2.951v3.652zm3.947-2.03v-1.032h3.393v-1.955h-3.393v-.922h3.836v-2.029h-6.456v7.968h6.603v-2.03zm9.811 2.03h2.877l-1.66-2.472c.923-.48 1.476-1.365 1.476-2.508 0-1.844-1.402-2.988-3.615-2.988h-3.836v7.968h2.693v-1.992h.7zm0-4.98c0 .59-.368.922-1.106.922h-.96v-1.844h.96c.737 0 1.106.332 1.106.922"/><path fill="#C5C5C8" fill-rule="evenodd" d="M18.717 72.138c-.295.406-.406.59-.701.96-.258-.111-.369-.185-.627-.296 1.438-1.844 2.14-2.766 3.467-4.684.369.147.553.221.885.369-.442 2.287-.663 3.43-1.032 5.754-.259-.11-.406-.148-.664-.258.073-.48.11-.701.184-1.18-.59-.259-.922-.37-1.512-.665m.295-.442c.553.221.811.332 1.328.553.258-1.328.369-1.955.664-3.283a74 74 0 0 1-1.992 2.73M26.464 70.22c.848.259 1.143.886.885 1.734-.295 1.107-.48 1.66-.774 2.767-.222.848-.849 1.254-1.808.959-.59-.185-.885-.296-1.475-.48.737-2.176 1.106-3.246 1.844-5.422.516.184.775.258 1.328.442m-1.55 4.906c.517.148.812-.074.96-.553.332-1.143.516-1.697.848-2.84.148-.48 0-.812-.48-.96-.258-.11-.405-.147-.663-.22-.554 1.733-.849 2.581-1.402 4.315.295.11.443.148.738.258" clip-rule="evenodd"/><path fill="#C5C5C8" d="M30.668 71.327a115 115 0 0 0 0 5.053c.775-1.844 1.18-2.803 1.882-4.684.258.037.368.074.59.11-.812 2.177-1.218 3.246-2.14 5.423-.405-.11-.627-.148-1.032-.222-.037-2.323 0-3.504.073-5.828.258.074.37.074.627.148M37.457 74.868c-.037.221-.037.332-.074.553-.59-.037-.886-.073-1.513-.147l-.184 2.029c.775.073 1.143.11 1.918.184 0 .221-.037.332-.037.553-1.07-.073-1.623-.11-2.656-.22.258-2.288.37-3.431.627-5.681.96.11 1.439.147 2.435.22-.037.222-.037.333-.074.554-.7-.037-1.033-.074-1.77-.147l-.185 1.955c.59.073.885.073 1.512.147M40.996 78.188h-.627c.037-2.287.037-3.43.11-5.718h.812c.554 1.66.849 2.472 1.476 4.132-.074-1.66-.074-2.508-.11-4.132.22-.036.331-.036.553-.036.11 2.287.147 3.43.22 5.717h-.737c-.738-1.807-1.033-2.73-1.66-4.574 0 1.844 0 2.767-.037 4.61M47.268 77.893c-.222-2.066-.332-3.062-.554-5.127-.442.073-.627.073-1.07.11-.036-.221-.036-.332-.073-.59 1.143-.074 1.697-.148 2.803-.295.037.221.074.332.074.59-.406.037-.627.074-1.07.11.259 2.066.37 3.062.59 5.091-.295.037-.442.074-.7.11M52.21 75.79c.074.48.369.738.885.627.517-.11.664-.442.554-.959-.37-1.697-.59-2.545-.96-4.242a3.5 3.5 0 0 1 .59-.147c.406 1.697.628 2.508 1.034 4.205.184.848-.111 1.512-1.107 1.733s-1.55-.295-1.697-1.143c-.332-1.697-.48-2.545-.811-4.242a4 4 0 0 0 .664-.147c.332 1.733.48 2.582.848 4.315"/><path fill="#C5C5C8" fill-rule="evenodd" d="M57.044 69.999c.885-.295 1.401 0 1.696.812.037.184.074.258.148.442.221.59.11 1.033-.369 1.365.627-.037.96.295 1.144.848.147.332.184.517.295.849.11.258.184.48.369.59-.296.11-.406.147-.701.258-.148-.11-.222-.258-.332-.627-.111-.332-.185-.48-.295-.848-.222-.59-.59-.701-1.144-.517-.184.074-.295.111-.48.148.296.959.443 1.402.738 2.36-.295.074-.442.111-.7.185a306 306 0 0 1-1.624-5.46c.48-.147.738-.22 1.255-.405m.664 2.619c.516-.147.774-.443.59-.996a8 8 0 0 0-.185-.516c-.147-.517-.442-.701-.922-.554-.221.074-.369.148-.59.222.221.811.369 1.18.59 1.992.221-.037.295-.074.517-.148" clip-rule="evenodd"/><path fill="#C5C5C8" d="M63.793 70.073c.074.221.148.332.221.516-.553.258-.848.406-1.401.627.295.775.48 1.144.774 1.882.738-.296 1.107-.48 1.808-.812.11.221.147.332.258.516-.996.48-1.513.701-2.509 1.107-.885-2.103-1.29-3.172-2.176-5.275.922-.369 1.365-.553 2.25-.996.111.222.148.332.258.517-.664.332-.995.48-1.66.774.296.701.443 1.07.775 1.77.553-.22.812-.368 1.402-.626"/><path stroke="#C5C5C8" stroke-miterlimit="10" stroke-width="1.406" d="M28.308 49.711c0-7.23 5.865-13.094 13.132-13.094 7.23 0 13.095 5.865 13.095 13.094M10.97 49.711h60.938M32.513 63.987h17.853M21.336 59.154h40.17M16.246 54.802h50.35"/></svg>