<svg xmlns="http://www.w3.org/2000/svg" width="89" height="102" fill="none"><path stroke="#C5C5C8" stroke-miterlimit="10" stroke-width="1.502" d="M84.735 74.217V28.008L44.72 4.923 4.705 28.008v46.209L44.72 97.34z"/><path stroke="#C5C5C8" stroke-miterlimit="10" stroke-width="1.502" d="M88 76.132v-50l-43.28-25-43.32 25v50l43.32 24.999z"/><path fill="#C5C5C8" d="M27.565 32.963h2.102V28.31h1.877v-1.652h-5.818v1.652h1.84zm8.296 0h2.252L36.8 31.011c.75-.375 1.2-1.05 1.2-1.99 0-1.463-1.125-2.364-2.89-2.364h-3.04v6.306h2.14v-1.576h.563zm0-3.941c0 .45-.263.75-.863.75h-.789v-1.5h.789c.6 0 .863.3.863.75m7.658 3.941h2.215l-2.778-6.306H40.89l-2.778 6.306h2.178l.412-1.126h2.403zm-2.252-2.627.638-1.577.6 1.577zm9.084-3.679-1.577 3.716-1.501-3.716h-2.29l2.665 6.306h2.102l2.665-6.306zm4.392 4.73v-.826h2.665v-1.54h-2.666v-.75h3.041v-1.614H52.64v6.306h5.256v-1.576zm3.978 1.576h4.955v-1.651h-2.815v-4.655h-2.14zM34.735 78.008h2.14v-4.654h1.839v-1.652h-5.818v1.652h1.839zm4.542 0h2.102v-6.306h-2.102zm10.698 0v-6.306h-1.764l-1.99 3.34-2.064-3.34H42.43v6.306h1.915v-2.777l1.389 2.214h.938l1.351-2.327.038 2.89zm3.116-1.614v-.826h2.665V74.03h-2.665v-.713h3.04v-1.614H50.99v6.306h5.255v-1.614z"/><path stroke="#C5C5C8" stroke-miterlimit="10" stroke-width="1.502" d="m15.891 65.508 11.036-13.513 7.057 9.046M56.282 60.891l6.982-8.558 10.285 13.175"/><path stroke="#C5C5C8" stroke-miterlimit="10" stroke-width="1.502" d="m30.305 65.508 15.166-18.506 14.414 18.506"/><path stroke="#C5C5C8" stroke-miterlimit="10" stroke-width="1.502" d="M36.612 57.85a12.23 12.23 0 0 1-4.092-9.12c0-6.758 5.443-12.2 12.2-12.2 6.72 0 12.2 5.442 12.2 12.2 0 3.302-1.314 6.305-3.491 8.52"/><path stroke="#C5C5C8" stroke-linecap="round" stroke-linejoin="round" stroke-width="1.502" d="M15.74 67.573V41.222M11.8 48.016l3.94-3.228 4.205 3.228M11.8 43.511l3.94-3.19 4.205 3.19M11.8 53.234l3.94-3.191 4.205 3.19M11.8 57.7l3.94-3.19 4.205 3.19M73.398 67.573V41.222M69.457 48.016l3.942-3.228 4.204 3.228M69.457 43.511l3.942-3.19 4.204 3.19M69.457 53.234l3.942-3.191 4.204 3.19M69.457 57.7l3.942-3.19 4.204 3.19"/></svg>