<svg xmlns="http://www.w3.org/2000/svg" width="92" height="103" fill="none"><path stroke="#C5C5C8" stroke-miterlimit="10" stroke-width="1.723" d="M23.425 18.617C10.488 26.38 1.85 40.572 1.85 56.744c0 24.58 19.939 44.519 44.52 44.519 24.542 0 44.48-19.938 44.48-44.519 0-16.172-8.637-30.326-21.536-38.127M43.288 12.34a43.9 43.9 0 0 0-12.9 2.853M62.846 15.383c-3.92-1.522-8.067-2.55-12.405-2.93M49.68 16.296q3.501.305 6.773 1.142M36.249 17.438a41 41 0 0 1 6.164-1.066"/><path stroke="#C5C5C8" stroke-miterlimit="10" stroke-width="1.723" d="M65.166 20.862c12.67 6.735 21.308 20.09 21.308 35.425 0 22.146-17.96 40.143-40.143 40.143-22.146 0-40.106-17.997-40.106-40.143 0-15.22 8.486-28.461 21.004-35.272"/><path stroke="#C5C5C8" stroke-linecap="round" stroke-linejoin="round" stroke-width="1.723" d="M46.865 30.68 52.687 1s-8.143 4.3-9.931 13.47c-1.789 9.17 4.109 16.21 4.109 16.21"/><path stroke="#C5C5C8" stroke-linecap="round" stroke-linejoin="round" stroke-width="1.723" d="m46.636 31.06 26.483-14.573s-8.486-3.501-16.666 1.027c-8.22 4.49-9.817 13.546-9.817 13.546M46.636 31.326l28.461 10.198s-3.006-8.676-11.833-11.834c-8.79-3.158-16.628 1.636-16.628 1.636M46.065 31.06 19.582 16.487s8.485-3.501 16.666 1.027c8.219 4.49 9.817 13.546 9.817 13.546M46.065 31.326 17.603 41.524S20.61 32.848 29.4 29.69c8.828-3.158 16.666 1.636 16.666 1.636"/><path fill="#C5C5C8" d="M23.654 79.346h2.778v-6.088h2.397v-2.131h-7.61v2.13h2.435zm10.806 0h2.968l-1.712-2.511c.99-.533 1.56-1.408 1.56-2.588 0-1.902-1.484-3.12-3.767-3.12h-3.957v8.219h2.777V77.29h.761zm-.038-5.137c0 .609-.342.99-1.103.99H32.29v-1.941h1.028c.76 0 1.103.342 1.103.951m10.007 5.137h2.892l-3.615-8.219h-2.74l-3.576 8.219h2.816l.532-1.446h3.159zM41.5 75.92l.8-2.054.799 2.054zm11.834-4.794-2.017 4.794-1.978-4.794H46.37l3.463 8.219h2.74l3.5-8.219zm5.708 6.126v-1.065h3.462V74.17h-3.462v-.951h3.957v-2.093h-6.697v8.219h6.85v-2.093zm5.175 2.093h6.506v-2.131h-3.729v-6.088h-2.777zM36.134 87.337V81.59h1.18v-.647H34.23v.647h1.18v5.746zm5.327-6.393v6.392h.723v-6.392zm8.485 1.256v5.136h.685v-6.392h-1.027l-.99 5.099-1.065-5.099h-.99v6.392h.61v-5.098l1.065 5.099h.685zm5.784 1.56v-2.17h1.902v-.646h-2.625v6.392h2.625v-.646H55.73v-2.283h1.56v-.647z"/><path stroke="#C5C5C8" stroke-miterlimit="10" stroke-width="1.723" d="M15.396 61.843h61.908M75.022 64.963c-3.806 3.881-7.154 0-7.154 0-3.843 3.881-7.191 0-7.191 0-3.806 3.881-7.154 0-7.154 0-3.843 3.881-7.192 0-7.192 0-3.805 3.881-7.153 0-7.153 0-3.843 3.881-7.191 0-7.191 0-3.805 3.881-7.154 0-7.154 0-3.843 3.881-7.191 0-7.191 0M42.602 61.843 45.038 32.2h2.359l2.701 29.642z"/><path stroke="#C5C5C8" stroke-miterlimit="10" stroke-width="1.723" d="M48.158 43.883c8.98.913 15.981 8.485 15.981 17.693M28.562 61.576c0-9.056 6.773-16.514 15.525-17.655"/></svg>